<mxfile host="app.diagrams.net" modified="2022-11-27T19:23:19.635Z" agent="5.0 (Macintosh; Intel Mac OS X 10_15_7) AppleWebKit/605.1.15 (KHTML, like Gecko) Version/16.0 Safari/605.1.15" etag="14hc_4zhD0B9p9ITh51N" version="20.5.3" type="github">
  <diagram id="Lu5KORJQyDP0WVwy52uV" name="Page-1">
    <mxGraphModel dx="1940" dy="759" grid="1" gridSize="10" guides="1" tooltips="1" connect="1" arrows="1" fold="1" page="1" pageScale="1" pageWidth="827" pageHeight="1169" math="0" shadow="0">
      <root>
        <mxCell id="0" />
        <mxCell id="1" parent="0" />
        <mxCell id="vZCdwGFw_1Mov0Ncn8PV-2" value="dim_account" style="swimlane;childLayout=stackLayout;horizontal=1;startSize=30;horizontalStack=0;rounded=1;fontSize=14;fontStyle=0;strokeWidth=2;resizeParent=0;resizeLast=1;shadow=0;dashed=0;align=center;" parent="1" vertex="1">
          <mxGeometry x="60" y="50" width="160" height="150" as="geometry" />
        </mxCell>
        <mxCell id="vZCdwGFw_1Mov0Ncn8PV-3" value="+account_id&#xa;+full_name&#xa;+email_address&#xa;+date_of_birth&#xa;+gender&#xa;+address&#xa;+country&#xa;" style="align=left;strokeColor=none;fillColor=none;spacingLeft=4;fontSize=12;verticalAlign=top;resizable=0;rotatable=0;part=1;" parent="vZCdwGFw_1Mov0Ncn8PV-2" vertex="1">
          <mxGeometry y="30" width="160" height="120" as="geometry" />
        </mxCell>
        <mxCell id="vZCdwGFw_1Mov0Ncn8PV-7" value="dim_song" style="swimlane;childLayout=stackLayout;horizontal=1;startSize=30;horizontalStack=0;rounded=1;fontSize=14;fontStyle=0;strokeWidth=2;resizeParent=0;resizeLast=1;shadow=0;dashed=0;align=center;" parent="1" vertex="1">
          <mxGeometry x="60" y="250" width="160" height="130" as="geometry" />
        </mxCell>
        <mxCell id="vZCdwGFw_1Mov0Ncn8PV-8" value="+song_id&#xa;+artist_id&#xa;+album_id&#xa;+genre&#xa;+song_title&#xa;+lyrics&#xa;" style="align=left;strokeColor=none;fillColor=none;spacingLeft=4;fontSize=12;verticalAlign=top;resizable=0;rotatable=0;part=1;" parent="vZCdwGFw_1Mov0Ncn8PV-7" vertex="1">
          <mxGeometry y="30" width="160" height="100" as="geometry" />
        </mxCell>
        <mxCell id="vZCdwGFw_1Mov0Ncn8PV-9" value="dim_band" style="swimlane;childLayout=stackLayout;horizontal=1;startSize=30;horizontalStack=0;rounded=1;fontSize=14;fontStyle=0;strokeWidth=2;resizeParent=0;resizeLast=1;shadow=0;dashed=0;align=center;" parent="1" vertex="1">
          <mxGeometry x="300" y="80" width="140" height="120" as="geometry" />
        </mxCell>
        <mxCell id="vZCdwGFw_1Mov0Ncn8PV-10" value="+band_id&#xa;+band_name&#xa;+members&#xa;+founded_date&#xa;+retired_date&#xa;" style="align=left;strokeColor=none;fillColor=none;spacingLeft=4;fontSize=12;verticalAlign=top;resizable=0;rotatable=0;part=1;" parent="vZCdwGFw_1Mov0Ncn8PV-9" vertex="1">
          <mxGeometry y="30" width="140" height="90" as="geometry" />
        </mxCell>
        <mxCell id="vZCdwGFw_1Mov0Ncn8PV-14" value="dim_album" style="swimlane;childLayout=stackLayout;horizontal=1;startSize=30;horizontalStack=0;rounded=1;fontSize=14;fontStyle=0;strokeWidth=2;resizeParent=0;resizeLast=1;shadow=0;dashed=0;align=center;" parent="1" vertex="1">
          <mxGeometry x="300" y="410" width="140" height="110" as="geometry" />
        </mxCell>
        <mxCell id="vZCdwGFw_1Mov0Ncn8PV-15" value="+album_id&#xa;+band_id&#xa;+album_title&#xa;+release_date&#xa;" style="align=left;strokeColor=none;fillColor=none;spacingLeft=4;fontSize=12;verticalAlign=top;resizable=0;rotatable=0;part=1;" parent="vZCdwGFw_1Mov0Ncn8PV-14" vertex="1">
          <mxGeometry y="30" width="140" height="80" as="geometry" />
        </mxCell>
        <mxCell id="vZCdwGFw_1Mov0Ncn8PV-16" value="" style="edgeStyle=entityRelationEdgeStyle;fontSize=12;html=1;endArrow=ERoneToMany;rounded=0;exitX=1;exitY=0.75;exitDx=0;exitDy=0;entryX=0;entryY=0.5;entryDx=0;entryDy=0;" parent="1" source="vZCdwGFw_1Mov0Ncn8PV-8" target="vZCdwGFw_1Mov0Ncn8PV-15" edge="1">
          <mxGeometry width="100" height="100" relative="1" as="geometry">
            <mxPoint x="280" y="380" as="sourcePoint" />
            <mxPoint x="380" y="280" as="targetPoint" />
          </mxGeometry>
        </mxCell>
        <mxCell id="vZCdwGFw_1Mov0Ncn8PV-17" value="dim_artist" style="swimlane;childLayout=stackLayout;horizontal=1;startSize=30;horizontalStack=0;rounded=1;fontSize=14;fontStyle=0;strokeWidth=2;resizeParent=0;resizeLast=1;shadow=0;dashed=0;align=center;" parent="1" vertex="1">
          <mxGeometry x="520" y="255" width="140" height="120" as="geometry" />
        </mxCell>
        <mxCell id="vZCdwGFw_1Mov0Ncn8PV-18" value="+artist_id&#xa;+full_name&#xa;+date_of_birth&#xa;" style="align=left;strokeColor=none;fillColor=none;spacingLeft=4;fontSize=12;verticalAlign=top;resizable=0;rotatable=0;part=1;" parent="vZCdwGFw_1Mov0Ncn8PV-17" vertex="1">
          <mxGeometry y="30" width="140" height="90" as="geometry" />
        </mxCell>
        <mxCell id="vZCdwGFw_1Mov0Ncn8PV-19" value="" style="edgeStyle=entityRelationEdgeStyle;fontSize=12;html=1;endArrow=ERmany;startArrow=ERmany;rounded=0;entryX=0;entryY=0.5;entryDx=0;entryDy=0;exitX=1;exitY=0.5;exitDx=0;exitDy=0;" parent="1" source="vZCdwGFw_1Mov0Ncn8PV-8" target="vZCdwGFw_1Mov0Ncn8PV-18" edge="1">
          <mxGeometry width="100" height="100" relative="1" as="geometry">
            <mxPoint x="280" y="380" as="sourcePoint" />
            <mxPoint x="380" y="280" as="targetPoint" />
          </mxGeometry>
        </mxCell>
        <mxCell id="vZCdwGFw_1Mov0Ncn8PV-22" value="fact_favourites" style="swimlane;childLayout=stackLayout;horizontal=1;startSize=30;horizontalStack=0;rounded=1;fontSize=14;fontStyle=0;strokeWidth=2;resizeParent=0;resizeLast=1;shadow=0;dashed=0;align=center;arcSize=0;" parent="1" vertex="1">
          <mxGeometry x="-220" y="60" width="140" height="120" as="geometry" />
        </mxCell>
        <mxCell id="vZCdwGFw_1Mov0Ncn8PV-23" value="+favourite_id&#xa;+favourite_date_id&#xa;+account_id&#xa;+song_id&#xa;+favourite_action&#xa;" style="align=left;strokeColor=none;fillColor=none;spacingLeft=4;fontSize=12;verticalAlign=top;resizable=0;rotatable=0;part=1;" parent="vZCdwGFw_1Mov0Ncn8PV-22" vertex="1">
          <mxGeometry y="30" width="140" height="90" as="geometry" />
        </mxCell>
        <mxCell id="vZCdwGFw_1Mov0Ncn8PV-24" value="fact_streams" style="swimlane;childLayout=stackLayout;horizontal=1;startSize=30;horizontalStack=0;rounded=1;fontSize=14;fontStyle=0;strokeWidth=2;resizeParent=0;resizeLast=1;shadow=0;dashed=0;align=center;arcSize=0;" parent="1" vertex="1">
          <mxGeometry x="-220" y="255" width="140" height="120" as="geometry" />
        </mxCell>
        <mxCell id="vZCdwGFw_1Mov0Ncn8PV-25" value="+stream_id&#xa;+stream_date_id&#xa;+account_id&#xa;+song_id&#xa;" style="align=left;strokeColor=none;fillColor=none;spacingLeft=4;fontSize=12;verticalAlign=top;resizable=0;rotatable=0;part=1;" parent="vZCdwGFw_1Mov0Ncn8PV-24" vertex="1">
          <mxGeometry y="30" width="140" height="90" as="geometry" />
        </mxCell>
        <mxCell id="vZCdwGFw_1Mov0Ncn8PV-26" value="" style="edgeStyle=entityRelationEdgeStyle;fontSize=12;html=1;endArrow=ERmany;rounded=0;exitX=0;exitY=0.25;exitDx=0;exitDy=0;entryX=1;entryY=0.25;entryDx=0;entryDy=0;" parent="1" source="vZCdwGFw_1Mov0Ncn8PV-3" target="vZCdwGFw_1Mov0Ncn8PV-23" edge="1">
          <mxGeometry width="100" height="100" relative="1" as="geometry">
            <mxPoint x="320" y="250" as="sourcePoint" />
            <mxPoint x="300" y="20" as="targetPoint" />
          </mxGeometry>
        </mxCell>
        <mxCell id="vZCdwGFw_1Mov0Ncn8PV-27" value="" style="edgeStyle=entityRelationEdgeStyle;fontSize=12;html=1;endArrow=ERmany;rounded=0;exitX=0;exitY=0.75;exitDx=0;exitDy=0;entryX=1;entryY=0.25;entryDx=0;entryDy=0;" parent="1" source="vZCdwGFw_1Mov0Ncn8PV-3" target="vZCdwGFw_1Mov0Ncn8PV-25" edge="1">
          <mxGeometry width="100" height="100" relative="1" as="geometry">
            <mxPoint x="230" y="120" as="sourcePoint" />
            <mxPoint x="354" y="-57.5" as="targetPoint" />
          </mxGeometry>
        </mxCell>
        <mxCell id="vZCdwGFw_1Mov0Ncn8PV-28" value="" style="edgeStyle=entityRelationEdgeStyle;fontSize=12;html=1;endArrow=ERmany;rounded=0;exitX=0;exitY=0.25;exitDx=0;exitDy=0;entryX=1;entryY=0.75;entryDx=0;entryDy=0;" parent="1" source="vZCdwGFw_1Mov0Ncn8PV-8" target="vZCdwGFw_1Mov0Ncn8PV-23" edge="1">
          <mxGeometry width="100" height="100" relative="1" as="geometry">
            <mxPoint x="240" y="130" as="sourcePoint" />
            <mxPoint x="364" y="-47.5" as="targetPoint" />
          </mxGeometry>
        </mxCell>
        <mxCell id="vZCdwGFw_1Mov0Ncn8PV-29" value="" style="edgeStyle=entityRelationEdgeStyle;fontSize=12;html=1;endArrow=ERmany;rounded=0;exitX=0;exitY=0.75;exitDx=0;exitDy=0;entryX=1;entryY=0.75;entryDx=0;entryDy=0;" parent="1" source="vZCdwGFw_1Mov0Ncn8PV-8" target="vZCdwGFw_1Mov0Ncn8PV-25" edge="1">
          <mxGeometry width="100" height="100" relative="1" as="geometry">
            <mxPoint x="230" y="315" as="sourcePoint" />
            <mxPoint x="354" y="-12.5" as="targetPoint" />
          </mxGeometry>
        </mxCell>
        <mxCell id="2Wv6960Wl2VxL7XHVJmV-1" value="dim_date" style="swimlane;childLayout=stackLayout;horizontal=1;startSize=30;horizontalStack=0;rounded=1;fontSize=14;fontStyle=0;strokeWidth=2;resizeParent=0;resizeLast=1;shadow=0;dashed=0;align=center;" parent="1" vertex="1">
          <mxGeometry x="-470" y="130" width="160" height="170" as="geometry" />
        </mxCell>
        <mxCell id="2Wv6960Wl2VxL7XHVJmV-2" value="+date_id&#xa;+date&#xa;+datetime&#xa;+week_start_date&#xa;+week_end_date&#xa;+month_start_date&#xa;+month_end_date&#xa;+quarter_start_date&#xa;+quarter_end_date&#xa;" style="align=left;strokeColor=none;fillColor=none;spacingLeft=4;fontSize=12;verticalAlign=top;resizable=0;rotatable=0;part=1;" parent="2Wv6960Wl2VxL7XHVJmV-1" vertex="1">
          <mxGeometry y="30" width="160" height="140" as="geometry" />
        </mxCell>
        <mxCell id="2Wv6960Wl2VxL7XHVJmV-4" value="" style="edgeStyle=entityRelationEdgeStyle;fontSize=12;html=1;endArrow=ERoneToMany;rounded=0;exitX=1;exitY=0.25;exitDx=0;exitDy=0;entryX=0;entryY=0.25;entryDx=0;entryDy=0;" parent="1" source="2Wv6960Wl2VxL7XHVJmV-2" target="vZCdwGFw_1Mov0Ncn8PV-23" edge="1">
          <mxGeometry width="100" height="100" relative="1" as="geometry">
            <mxPoint x="-170" y="300" as="sourcePoint" />
            <mxPoint x="-230" y="120" as="targetPoint" />
          </mxGeometry>
        </mxCell>
        <mxCell id="2Wv6960Wl2VxL7XHVJmV-5" value="" style="edgeStyle=entityRelationEdgeStyle;fontSize=12;html=1;endArrow=ERoneToMany;rounded=0;exitX=1;exitY=0.75;exitDx=0;exitDy=0;entryX=0;entryY=0.75;entryDx=0;entryDy=0;" parent="1" source="2Wv6960Wl2VxL7XHVJmV-2" target="vZCdwGFw_1Mov0Ncn8PV-24" edge="1">
          <mxGeometry width="100" height="100" relative="1" as="geometry">
            <mxPoint x="-300" y="205" as="sourcePoint" />
            <mxPoint x="-220" y="130" as="targetPoint" />
          </mxGeometry>
        </mxCell>
      </root>
    </mxGraphModel>
  </diagram>
</mxfile>
